<svg width="26" height="20" xmlns="http://www.w3.org/2000/svg" xmlns:xlink="http://www.w3.org/1999/xlink" xmlns:svgjs="http://svgjs.com/svgjs" fill="#387ed6"><svg xmlns="http://www.w3.org/2000/svg" width="26" height="20"><path paint-order="stroke fill markers" fill-rule="evenodd" d="M0 0v20h26V0H0zm2 2h22v16h-3.407c-.078-.137-.042-.324-.156-.438C20.058 17.183 19.523 17 19 17c-.524 0-1.059.183-1.438.562-.113.114-.078.301-.156.438H8.593c-.078-.137-.042-.324-.156-.438C8.058 17.183 7.523 17 7 17c-.524 0-1.059.183-1.438.562-.113.114-.078.301-.156.438H1.999V2zm7 2C6.8 4 5 5.8 5 8c0 1.113.476 2.117 1.218 2.844A5.041 5.041 0 0 0 4 15h2a3 3 0 0 1 6 0h2a5.041 5.041 0 0 0-2.219-4.156C12.523 10.117 13 9.114 13 8c0-2.2-1.801-4-4-4zm0 2c1.117 0 2 .883 2 2s-.883 2-2 2-2-.883-2-2 .883-2 2-2zm7 1v2h6V7h-6zm0 4v2h6v-2h-6z"/></svg></svg>