<svg width="18" height="27" xmlns="http://www.w3.org/2000/svg" xmlns:xlink="http://www.w3.org/1999/xlink" xmlns:svgjs="http://svgjs.com/svgjs" viewBox="0 0.125 18 26.75" fill="#387ed6"><svg xmlns="http://www.w3.org/2000/svg" width="18" height="27" viewBox="0 0 18 26.75"><path paint-order="stroke fill markers" fill-rule="evenodd" d="M9 0C4.043 0 0 4.043 0 9c0 1.406.57 3.02 1.343 4.781.774 1.762 1.77 3.633 2.781 5.375a101.383 101.383 0 0 0 4.063 6.406L9 26.75l.812-1.188s2.04-2.918 4.063-6.406c1.011-1.742 2.008-3.613 2.78-5.375C17.43 12.02 18 10.406 18 9c0-4.957-4.044-9-9-9zm0 2c3.879 0 7 3.121 7 7 0 .8-.43 2.316-1.157 3.969-.726 1.652-1.73 3.484-2.718 5.187-1.57 2.711-2.547 4.145-3.125 5-.579-.855-1.555-2.289-3.126-5-.987-1.703-1.991-3.535-2.718-5.187C2.429 11.316 2 9.8 2 8.999c0-3.878 3.12-7 7-7zm0 5a1.999 1.999 0 1 0 0 4 1.999 1.999 0 1 0 0-4z"/></svg></svg>