<svg width="13" height="13" xmlns="http://www.w3.org/2000/svg" xmlns:xlink="http://www.w3.org/1999/xlink" xmlns:svgjs="http://svgjs.com/svgjs" viewBox="0 0.318 13 12.363"><svg xmlns="http://www.w3.org/2000/svg" width="13" height="13" viewBox="0 0 12.69 12.068"><path paint-order="stroke fill markers" fill-rule="evenodd" d="M6.345 0l-.401.912-1.438 3.221-3.511.373L0 4.617l.746.663 2.613 2.364-.733 3.456-.207.968.87-.498L6.346 9.8 9.4 11.57l.87.498-.207-.968-.733-3.456 2.613-2.364.747-.663-.995-.11-3.512-.374L6.746.913 6.345 0zm0 2.17l1.133 2.558.11.234.25.028 2.778.29-2.073 1.867-.194.18.056.248.58 2.724-2.42-1.383-.22-.138-.221.138-2.42 1.383.58-2.724.056-.249-.193-.18L2.073 5.28l2.779-.29.249-.028.11-.234L6.345 2.17z"/></svg></svg>