<?xml version="1.0" encoding="UTF-8"?>
<svg width="18px" height="18px" viewBox="0 0 18 18" version="1.1" xmlns="http://www.w3.org/2000/svg" xmlns:xlink="http://www.w3.org/1999/xlink">
    <!-- Generator: Sketch 60.1 (88133) - https://sketch.com -->
    <title>close</title>
    <desc>Created with Sketch.</desc>
    <g id="UI" stroke="none" stroke-width="1" fill="none" fill-rule="evenodd">
        <g id="5.5.2_Order_Receipt" transform="translate(-977.000000, -117.000000)" fill="#387ED6" fill-rule="nonzero" stroke="#387ED6" stroke-width="0.5">
            <g id="Group-47" transform="translate(320.000000, 80.000000)">
                <g id="Group-45" transform="translate(50.000000, 29.000000)">
                    <path d="M604.848442,17.8540898 C604.375728,17.8540898 604,17.4663529 604,16.9938939 C604,16.5214349 604.375728,16.1459102 604.848442,16.1459102 L615.138957,16.1459102 L615.138957,5.8601959 C615.139721,5.38773693 615.527667,5 616.000382,5 C616.473096,5 616.848824,5.38773693 616.848824,5.8601959 L616.848824,16.1459102 L627.139339,16.1459102 C627.612053,16.1459102 628,16.5214349 628,16.9938939 C628,17.4663529 627.612053,17.8540898 627.139339,17.8540898 L616.848824,17.8540898 L616.848824,28.1398041 C616.848824,28.6122631 616.473096,29 616.000382,29 C615.527667,29 615.139721,28.6122631 615.139721,28.1398041 L615.139721,17.8540898 L604.848442,17.8540898 Z" id="close" transform="translate(616.000000, 17.000000) rotate(-315.000000) translate(-616.000000, -17.000000) "></path>
                </g>
            </g>
        </g>
    </g>
</svg>