<svg width="17" height="16" xmlns="http://www.w3.org/2000/svg" xmlns:xlink="http://www.w3.org/1999/xlink" xmlns:svgjs="http://svgjs.com/svgjs" viewBox="0.506 0 15.987 16" fill="#387ed6"><svg xmlns="http://www.w3.org/2000/svg" width="17" height="16" viewBox="1 0 15.23 15.242"><path paint-order="stroke fill markers" fill-rule="evenodd" d="M14.18 0a2.02 2.02 0 0 0-1.434.609l-.06.059-.392-.374-10.37 10.372-.04.196-.688 3.457-.196.923.923-.196 3.457-.688.196-.039L15.947 3.948l-.373-.373.04-.04.019-.039a2.044 2.044 0 0 0 0-2.887A2.064 2.064 0 0 0 14.18 0zm0 1.237c.196 0 .402.089.569.256.336.336.336.783 0 1.12l-.059.058-1.12-1.12.06-.058c.167-.167.353-.256.55-.256zm-1.866.825l1.866 1.866-.904.923-1.886-1.885.924-.904zM10.526 3.87l1.846 1.847-6.56 6.58-.255-1.14-.079-.392-.392-.079-1.14-.255 6.58-6.56zM3.042 11.51l1.375.314.315 1.375-1.277.256-.668-.668.255-1.277z"/></svg></svg>