<svg width="13" height="13" xmlns="http://www.w3.org/2000/svg" xmlns:xlink="http://www.w3.org/1999/xlink" xmlns:svgjs="http://svgjs.com/svgjs" viewBox="0 0.318 13 12.363" fill="#ff8e01"><svg xmlns="http://www.w3.org/2000/svg" width="13" height="13" viewBox="0 0 12.69 12.068"><path paint-order="stroke fill markers" fill-rule="evenodd" d="M6.345 0l-.4.912-1.439 3.221-3.511.373L0 4.617l.746.663L3.36 7.644 2.626 11.1l-.207.968.87-.498L6.346 9.8 9.4 11.57l.87.498-.207-.968-.732-3.456 2.612-2.364.747-.663-.996-.11-3.511-.374L6.746.913 6.345 0zm0 2.17l1.133 2.558.11.234.25.028 2.778.29-2.074 1.867-.193.18.055.248.581 2.724-2.419-1.383-.221-.138-.221.138-2.42 1.383.581-2.724.055-.249-.193-.18L2.073 5.28l2.779-.29.248-.028.111-.234L6.345 2.17z"/></svg></svg>